<svg width="146" height="60" viewBox="0 0 146 60" fill="none" xmlns="http://www.w3.org/2000/svg">
<path d="M55.1007 3.27576H73.8373V29.5182C73.8373 37.1864 67.4935 43.401 59.6731 43.401H57.4415C49.6178 43.401 43.2773 37.1864 43.2773 29.5182V27.2006H52.2765V28.1939C52.2939 29.8612 52.9726 31.4533 54.1634 32.6205C55.3541 33.7876 56.9595 34.4343 58.6268 34.4184C59.4546 34.428 60.2762 34.2742 61.0444 33.9656C61.8126 33.6571 62.5123 33.2 63.1035 32.6205C63.6947 32.041 64.1657 31.3505 64.4895 30.5886C64.8133 29.8267 64.9835 29.0084 64.9905 28.1806V11.8577H55.1437L55.1007 3.27576Z" fill="white"/>
<path d="M73.8271 43.4043H83.6341L92.0671 18.0293L95.7124 27.7568H91.8618L89.3091 35.4581H98.146L101.225 43.4043H110.79L96.6858 3.27576H88.2562L73.8271 43.4043Z" fill="white"/>
<path d="M113.79 3.27576H121.978V14.4634L133.407 3.27576H145.161L127.408 21.3535L145.161 43.4043H134.056L122.382 29.7037V43.4043H113.383L113.79 3.27576Z" fill="white"/>
<path d="M47.7404 51.4367C47.4552 51.2873 47.1386 51.2078 46.8167 51.2049C46.4571 51.2022 46.1035 51.2972 45.7936 51.4797C45.4874 51.6584 45.2356 51.9171 45.0652 52.228C44.8877 52.5491 44.7964 52.9107 44.8003 53.2776C44.7967 53.6465 44.888 54.0102 45.0652 54.3338C45.237 54.6462 45.4883 54.9077 45.7936 55.092C46.1025 55.2772 46.4565 55.3735 46.8167 55.3701C47.1297 55.3655 47.4381 55.2932 47.7206 55.1582C48.0245 55.0165 48.3013 54.8226 48.5384 54.5854L49.4191 55.539C49.0647 55.9075 48.6418 56.2033 48.1741 56.4097C47.7256 56.6217 47.2366 56.7346 46.7405 56.7408C46.122 56.7475 45.5125 56.5923 44.9725 56.2905C44.4516 55.9992 44.0192 55.5725 43.7209 55.0555C43.4171 54.5223 43.2605 53.9178 43.2673 53.3041C43.2598 52.7004 43.4174 52.1061 43.7232 51.5856C44.029 51.0651 44.4713 50.638 45.0023 50.3507C45.552 50.0498 46.1701 49.8958 46.7968 49.9037C47.7789 49.9185 48.7164 50.3165 49.4091 51.0129L48.5384 52.0823C48.3196 51.8145 48.048 51.5947 47.7404 51.4367Z" fill="white"/>
<path d="M54.7962 50.3441C55.1933 50.5648 55.5422 50.8628 55.8225 51.2204C56.1027 51.5781 56.3086 51.9881 56.428 52.4265C56.5474 52.8649 56.5779 53.3228 56.5177 53.7731C56.4575 54.2235 56.3078 54.6572 56.0775 55.0489C55.7694 55.5684 55.3267 55.9951 54.7962 56.2839C54.2395 56.5796 53.6187 56.7342 52.9884 56.7342C52.358 56.7342 51.7373 56.5796 51.1806 56.2839C50.651 55.9953 50.2085 55.57 49.8993 55.0522C49.6649 54.6617 49.5118 54.2278 49.4492 53.7767C49.3865 53.3256 49.4156 52.8665 49.5346 52.4268C49.6536 51.9872 49.8602 51.5761 50.1419 51.2182C50.4236 50.8603 50.7746 50.563 51.174 50.3441C51.7326 50.0506 52.3541 49.8972 52.9851 49.8972C53.6161 49.8972 54.2376 50.0506 54.7962 50.3441ZM51.9852 51.483C51.6732 51.6668 51.4152 51.9294 51.2369 52.2445C51.0557 52.5707 50.9606 52.9376 50.9606 53.3106C50.9606 53.6837 51.0557 54.0506 51.2369 54.3768C51.418 54.6906 51.6753 54.9537 51.9852 55.1416C52.2922 55.3291 52.6452 55.4276 53.0049 55.4263C53.3553 55.4268 53.699 55.3306 53.9982 55.1482C54.3054 54.962 54.557 54.6967 54.7266 54.3801C54.9091 54.0523 55.0027 53.6825 54.9981 53.3073C55.0022 52.9354 54.9086 52.5689 54.7266 52.2445C54.5549 51.9312 54.3036 51.6685 53.9982 51.483C53.699 51.3007 53.3553 51.2044 53.0049 51.2049C52.6461 51.2038 52.2937 51.2999 51.9852 51.483Z" fill="white"/>
<path d="M61.8284 50.0031H63.2422V56.6249H61.8847L58.6764 52.3671V56.6249H57.2461V50.0031H58.6069L61.8284 54.2841V50.0031Z" fill="white"/>
<path d="M68.4206 51.4367C68.1357 51.2865 67.8189 51.2071 67.4968 51.2049C67.1383 51.2028 66.786 51.2978 66.4771 51.4797C66.1701 51.6575 65.9181 51.9164 65.7487 52.228C65.5685 52.5482 65.476 52.9102 65.4805 53.2776C65.4764 53.647 65.5689 54.011 65.7487 54.3338C65.919 54.6473 66.1706 54.9092 66.4771 55.092C66.7848 55.2771 67.1377 55.3734 67.4968 55.3701C67.8099 55.3655 68.1182 55.2932 68.4007 55.1582C68.7057 55.0165 68.9836 54.8227 69.2218 54.5854L70.1025 55.539C69.7482 55.9075 69.3253 56.2033 68.8576 56.4097C68.4089 56.6213 67.92 56.7342 67.424 56.7408C66.8044 56.7479 66.1937 56.5927 65.6526 56.2905C65.1323 55.9996 64.7008 55.5728 64.4044 55.0555C64.098 54.5232 63.9402 53.9183 63.9475 53.3041C63.9403 52.7001 64.0984 52.1056 64.4048 51.585C64.7112 51.0644 65.1542 50.6376 65.6857 50.3507C66.2355 50.0498 66.8536 49.8958 67.4803 49.9037C68.4624 49.9185 69.3999 50.3165 70.0926 51.0129L69.2218 52.0823C69.0019 51.8144 68.7292 51.5946 68.4206 51.4367Z" fill="white"/>
<path d="M74.7776 56.6282L73.7248 54.7344H72.2017V56.6282H70.7085V50.0063H73.5857C74.3046 49.9601 75.0163 50.1727 75.5921 50.6056C75.8312 50.8173 76.0191 51.0804 76.1418 51.3752C76.2646 51.6699 76.3189 51.9887 76.3007 52.3075C76.3121 52.7707 76.1977 53.2284 75.9696 53.6318C75.7559 53.9964 75.4343 54.2857 75.0491 54.4596L76.4596 56.6448L74.7776 56.6282ZM72.2017 53.4861H73.5857C73.9299 53.5082 74.2706 53.406 74.5459 53.1981C74.6604 53.0901 74.7495 52.9581 74.8067 52.8115C74.864 52.6649 74.888 52.5075 74.877 52.3505C74.8883 52.1964 74.8644 52.0418 74.807 51.8984C74.7496 51.755 74.6603 51.6265 74.5459 51.5228C74.2683 51.3201 73.9288 51.2205 73.5857 51.2413H72.2017V53.4861Z" fill="white"/>
<path d="M77.2773 50.0031H82.3199V51.2413H78.7706V52.6816H81.9623V53.9199H78.7706V55.3899H82.4126V56.6282H77.2773V50.0031Z" fill="white"/>
<path d="M82.6606 50.0031H88.1998V51.2711H86.1736V56.6282H84.677V51.2711H82.6606V50.0031Z" fill="white"/>
<path d="M88.7363 50.0031H93.7822V51.2413H90.2163V52.6816H93.4047V53.9199H90.2163V55.3899H93.8583V56.6282H88.7363V50.0031Z" fill="white"/>
<path d="M102.619 51.4367C102.318 51.2761 101.981 51.1958 101.64 51.2033C101.299 51.2109 100.966 51.3061 100.672 51.4797C100.367 51.6597 100.116 51.9181 99.9441 52.228C99.7665 52.5491 99.6753 52.9107 99.6792 53.2776C99.6756 53.6465 99.7668 54.0102 99.9441 54.3338C100.117 54.6454 100.368 54.9068 100.672 55.092C100.982 55.2767 101.335 55.373 101.696 55.3701C102.009 55.3655 102.317 55.2932 102.599 55.1582C102.904 55.0165 103.182 54.8227 103.421 54.5854L104.298 55.539C103.944 55.9082 103.521 56.2041 103.053 56.4097C102.605 56.622 102.116 56.7349 101.619 56.7408C101.001 56.7475 100.391 56.5923 99.8514 56.2905C99.3305 55.9992 98.8981 55.5725 98.5998 55.0555C98.296 54.5223 98.1394 53.9178 98.1462 53.3041C98.139 52.7001 98.2972 52.1056 98.6035 51.585C98.9099 51.0644 99.3529 50.6376 99.8845 50.3507C100.434 50.0498 101.052 49.8958 101.679 49.9037C102.167 49.9055 102.65 50.0081 103.096 50.205C103.547 50.3885 103.955 50.661 104.298 51.0063L103.427 52.0757C103.204 51.8102 102.929 51.5928 102.619 51.4367Z" fill="white"/>
<path d="M109.675 50.344C110.071 50.5652 110.42 50.8633 110.7 51.2209C110.98 51.5785 111.186 51.9883 111.306 52.4265C111.425 52.8647 111.456 53.3223 111.397 53.7726C111.337 54.2229 111.188 54.6568 110.959 55.0489C110.649 55.5678 110.205 55.9942 109.675 56.2839C109.118 56.5795 108.497 56.7342 107.867 56.7342C107.236 56.7342 106.616 56.5795 106.059 56.2839C105.529 55.9953 105.087 55.57 104.778 55.0522C104.543 54.6616 104.39 54.2275 104.327 53.7762C104.264 53.3248 104.294 52.8654 104.413 52.4257C104.532 51.9859 104.739 51.5748 105.022 51.2171C105.304 50.8593 105.656 50.5624 106.056 50.344C106.614 50.0506 107.235 49.8972 107.865 49.8972C108.496 49.8972 109.117 50.0506 109.675 50.344ZM106.864 51.483C106.552 51.6678 106.295 51.9302 106.115 52.2445C105.932 52.5687 105.838 52.9351 105.84 53.3073C105.839 53.6761 105.932 54.039 106.113 54.3605C106.293 54.6821 106.554 54.9512 106.87 55.1416C107.176 55.3255 107.525 55.4227 107.882 55.4227C108.238 55.4227 108.588 55.3255 108.893 55.1416C109.2 54.9554 109.452 54.6901 109.622 54.3734C109.804 54.0456 109.898 53.6758 109.893 53.3007C109.897 52.9288 109.804 52.5623 109.622 52.2379C109.45 51.9245 109.199 51.6619 108.893 51.4764C108.594 51.294 108.25 51.1978 107.9 51.1983C107.535 51.1962 107.176 51.2947 106.864 51.483Z" fill="white"/>
<path d="M116.84 56.6282L116.32 55.3403H113.254L112.734 56.6282H111.191L114.069 50.0063H115.611L118.439 56.6282H116.84ZM113.744 54.1384H115.837L114.797 51.5658L113.744 54.1384Z" fill="white"/>
<path d="M117.502 50.0031H123.041V51.2711H121.015V56.6282H119.528V51.2711H117.512L117.502 50.0031Z" fill="white"/>
<path d="M123.561 50.0031H125.058V56.6249H123.561V50.0031Z" fill="white"/>
<path d="M130.822 50.0031H132.242V56.6249H130.878L127.67 52.3671V56.6249H126.239V50.0031H127.603L130.822 54.2841V50.0031Z" fill="white"/>
<path d="M137.864 53.2907H139.159V55.8667C138.772 56.142 138.344 56.3544 137.891 56.4957C137.433 56.6504 136.953 56.7319 136.47 56.7374C135.842 56.7449 135.223 56.5898 134.672 56.2871C134.141 55.9942 133.699 55.5621 133.394 55.0372C133.089 54.5123 132.932 53.9143 132.941 53.3073C132.935 52.6979 133.098 52.0987 133.411 51.5759C133.724 51.053 134.176 50.6268 134.715 50.344C135.282 50.0426 135.915 49.8889 136.556 49.897C137.05 49.8972 137.539 49.9881 138 50.1652C138.447 50.3257 138.859 50.5695 139.215 50.8837L138.374 51.9664C138.128 51.7312 137.839 51.5447 137.523 51.4168C137.217 51.2876 136.889 51.2201 136.556 51.2181C136.19 51.2138 135.829 51.3076 135.511 51.4898C135.193 51.6721 134.93 51.9361 134.749 52.2544C134.566 52.5814 134.47 52.9495 134.47 53.3239C134.47 53.6982 134.566 54.0664 134.749 54.3933C134.928 54.7145 135.192 54.9812 135.51 55.1653C135.829 55.3494 136.192 55.4442 136.56 55.4395C136.775 55.4365 136.989 55.403 137.195 55.3402C137.424 55.2727 137.646 55.1829 137.858 55.072L137.864 53.2907Z" fill="white"/>
<path d="M143.463 51.3505C143.143 51.2394 142.808 51.178 142.47 51.1684C142.255 51.1579 142.043 51.206 141.854 51.3075C141.781 51.3499 141.722 51.4111 141.682 51.4845C141.642 51.558 141.622 51.6409 141.625 51.7246C141.623 51.8364 141.653 51.9464 141.712 52.0415C141.771 52.1366 141.856 52.2128 141.956 52.261C142.273 52.4235 142.606 52.5522 142.95 52.6451C143.333 52.7511 143.708 52.8838 144.072 53.0424C144.368 53.1755 144.627 53.3803 144.824 53.6384C145.045 53.9424 145.155 54.3125 145.138 54.6879C145.15 55.0785 145.034 55.4623 144.807 55.7805C144.574 56.0966 144.254 56.3381 143.887 56.4758C143.464 56.6392 143.015 56.7201 142.562 56.7142C142.023 56.7132 141.488 56.6168 140.983 56.4295C140.491 56.2557 140.036 55.9931 139.639 55.6547L140.235 54.433C140.576 54.7398 140.966 54.9862 141.39 55.1614C141.766 55.3306 142.171 55.424 142.582 55.4362C142.835 55.4509 143.088 55.3911 143.307 55.264C143.379 55.2146 143.439 55.1501 143.483 55.0749C143.528 54.9997 143.555 54.9157 143.563 54.8289C143.571 54.7421 143.56 54.6545 143.531 54.5723C143.502 54.4902 143.455 54.4155 143.393 54.3535C143.264 54.2342 143.112 54.1419 142.946 54.082C142.768 54.0125 142.519 53.933 142.205 53.8469C141.826 53.7443 141.454 53.6171 141.092 53.4662C140.801 53.3385 140.546 53.1405 140.351 52.8901C140.129 52.5928 140.018 52.2275 140.036 51.8571C140.033 51.4821 140.149 51.1157 140.367 50.8108C140.597 50.5012 140.909 50.2625 141.268 50.1221C141.695 49.9526 142.152 49.8705 142.612 49.8805C143.067 49.8808 143.52 49.9477 143.956 50.0791C144.37 50.199 144.765 50.3774 145.128 50.6089L144.552 51.8471C144.21 51.6386 143.844 51.4719 143.463 51.3505Z" fill="white"/>
<path d="M19.5544 16.4235V0.938232H14.045L0 13.1887V36.3719H14.8297V23.35H8.36674V16.4235H19.5544Z" fill="#FE7642"/>
<path d="M21.9715 23.6911V40.0934C21.9715 40.9716 21.6226 41.8137 21.0017 42.4346C20.3808 43.0555 19.5386 43.4044 18.6605 43.4044H15.1675V59.0618H20.7961L34.851 46.8643V23.6877L21.9715 23.6911Z" fill="#FE7642"/>
</svg>
